<svg width="25" height="24" viewBox="0 0 25 24" fill="none" xmlns="http://www.w3.org/2000/svg">
<path fill-rule="evenodd" clip-rule="evenodd" d="M5.41488 2H8.79488C10.2049 2 11.3349 3.15 11.3349 4.561V7.97C11.3349 9.39 10.2049 10.53 8.79488 10.53H5.41488C4.01488 10.53 2.87488 9.39 2.87488 7.97V4.561C2.87488 3.15 4.01488 2 5.41488 2ZM5.41488 13.4697H8.79488C10.2049 13.4697 11.3349 14.6107 11.3349 16.0307V19.4397C11.3349 20.8497 10.2049 21.9997 8.79488 21.9997H5.41488C4.01488 21.9997 2.87488 20.8497 2.87488 19.4397V16.0307C2.87488 14.6107 4.01488 13.4697 5.41488 13.4697ZM20.335 2H16.955C15.545 2 14.415 3.15 14.415 4.561V7.97C14.415 9.39 15.545 10.53 16.955 10.53H20.335C21.735 10.53 22.875 9.39 22.875 7.97V4.561C22.875 3.15 21.735 2 20.335 2ZM16.955 13.4697H20.335C21.735 13.4697 22.875 14.6107 22.875 16.0307V19.4397C22.875 20.8497 21.735 21.9997 20.335 21.9997H16.955C15.545 21.9997 14.415 20.8497 14.415 19.4397V16.0307C14.415 14.6107 15.545 13.4697 16.955 13.4697Z" fill="#17CE92"/>
</svg>
