<svg width="25" height="24" viewBox="0 0 25 24" fill="none" xmlns="http://www.w3.org/2000/svg">
<mask id="mask0_1_4259" style="mask-type:luminance" maskUnits="userSpaceOnUse" x="1" y="1" width="23" height="22">
<path fill-rule="evenodd" clip-rule="evenodd" d="M1.625 1.00024H23.118V22.494H1.625V1.00024Z" fill="white"/>
</mask>
<g mask="url(#mask0_1_4259)">
<path fill-rule="evenodd" clip-rule="evenodd" d="M6.73338 19.6752C7.31338 19.6752 7.86038 19.8952 8.43938 20.1282C11.9864 21.7682 16.1814 21.0222 18.9144 18.2902C22.5204 14.6822 22.5204 8.81324 18.9144 5.20724C17.1684 3.46124 14.8464 2.50024 12.3744 2.50024C9.90138 2.50024 7.57838 3.46224 5.83338 5.20824C3.09938 7.94024 2.35538 12.1352 3.98038 15.6482C4.21438 16.2272 4.44038 16.7912 4.44038 17.3772C4.44038 17.9622 4.23938 18.5512 4.06238 19.0712C3.91638 19.4992 3.69538 20.1452 3.83738 20.2872C3.97638 20.4312 4.62638 20.2042 5.05538 20.0572C5.57038 19.8812 6.15438 19.6792 6.73338 19.6752ZM12.3494 22.4942C10.8214 22.4942 9.28338 22.1712 7.84438 21.5052C7.42038 21.3352 7.02338 21.1752 6.73838 21.1752C6.41038 21.1772 5.96938 21.3292 5.54338 21.4762C4.66938 21.7762 3.58138 22.1502 2.77638 21.3482C1.97438 20.5452 2.34438 19.4602 2.64238 18.5872C2.78938 18.1572 2.94038 17.7132 2.94038 17.3772C2.94038 17.1012 2.80738 16.7492 2.60338 16.2422C0.730376 12.1972 1.59638 7.32224 4.77338 4.14724C6.80138 2.11824 9.50038 1.00024 12.3734 1.00024C15.2464 1.00024 17.9464 2.11724 19.9744 4.14624C24.1664 8.33824 24.1664 15.1582 19.9744 19.3502C17.9194 21.4062 15.1524 22.4942 12.3494 22.4942Z" fill="#9E9E9E"/>
</g>
<path fill-rule="evenodd" clip-rule="evenodd" d="M16.3213 13.1628C15.7693 13.1628 15.3173 12.7158 15.3173 12.1628C15.3173 11.6098 15.7603 11.1628 16.3123 11.1628H16.3213C16.8733 11.1628 17.3213 11.6098 17.3213 12.1628C17.3213 12.7158 16.8733 13.1628 16.3213 13.1628Z" fill="#9E9E9E"/>
<path fill-rule="evenodd" clip-rule="evenodd" d="M12.3125 13.1628C11.7605 13.1628 11.3085 12.7158 11.3085 12.1628C11.3085 11.6098 11.7505 11.1628 12.3035 11.1628H12.3125C12.8645 11.1628 13.3125 11.6098 13.3125 12.1628C13.3125 12.7158 12.8645 13.1628 12.3125 13.1628Z" fill="#9E9E9E"/>
<path fill-rule="evenodd" clip-rule="evenodd" d="M8.30332 13.1628C7.75132 13.1628 7.29932 12.7158 7.29932 12.1628C7.29932 11.6098 7.74232 11.1628 8.29432 11.1628H8.30332C8.85532 11.1628 9.30332 11.6098 9.30332 12.1628C9.30332 12.7158 8.85532 13.1628 8.30332 13.1628Z" fill="#9E9E9E"/>
</svg>
