<svg width="25" height="24" viewBox="0 0 25 24" fill="none" xmlns="http://www.w3.org/2000/svg">
<path fill-rule="evenodd" clip-rule="evenodd" d="M2.625 12.015C2.625 6.74712 6.835 2 12.645 2C18.325 2 22.625 6.65699 22.625 11.985C22.625 18.1642 17.585 22 12.625 22C10.985 22 9.165 21.5593 7.705 20.698C7.195 20.3876 6.765 20.1572 6.215 20.3375L4.195 20.9384C3.685 21.0986 3.225 20.698 3.375 20.1572L4.045 17.9139C4.155 17.6034 4.135 17.2729 3.975 17.0125C3.115 15.4301 2.625 13.6975 2.625 12.015ZM11.325 12.015C11.325 12.7261 11.895 13.2969 12.605 13.307C13.315 13.307 13.885 12.7261 13.885 12.025C13.885 11.314 13.315 10.7431 12.605 10.7431C11.905 10.7331 11.325 11.314 11.325 12.015ZM15.935 12.025C15.935 12.7261 16.505 13.307 17.215 13.307C17.925 13.307 18.495 12.7261 18.495 12.025C18.495 11.314 17.925 10.7431 17.215 10.7431C16.505 10.7431 15.935 11.314 15.935 12.025ZM7.995 13.307C7.295 13.307 6.715 12.7261 6.715 12.025C6.715 11.314 7.285 10.7431 7.995 10.7431C8.705 10.7431 9.275 11.314 9.275 12.025C9.275 12.7261 8.705 13.2969 7.995 13.307Z" fill="#17CE92"/>
</svg>