<svg width="26" height="28" viewBox="0 0 26 28" fill="none" xmlns="http://www.w3.org/2000/svg">
<path d="M12.9816 11.5504L18.9003 13.1363" stroke="white" stroke-width="2" stroke-linecap="round"/>
<path d="M12.0295 15.1013L15.5808 16.0528" stroke="white" stroke-width="2" stroke-linecap="round"/>
<path d="M23.4409 14.7947C22.7004 17.5583 22.3301 18.9401 21.4907 19.8363C20.828 20.5439 19.9703 21.0391 19.0261 21.2592C18.9081 21.2868 18.7884 21.308 18.6656 21.323C17.5441 21.4614 16.1759 21.0947 13.6849 20.4273C10.9213 19.6868 9.53947 19.3165 8.64329 18.4772C7.93566 17.8144 7.44046 16.9567 7.22031 16.0125C6.94148 14.8166 7.31173 13.4349 8.05224 10.6713L8.68661 8.30377C8.7931 7.90633 8.89194 7.53746 8.98562 7.1945C9.54331 5.15276 9.91808 4.02948 10.6367 3.26218C11.2995 2.55455 12.1572 2.05935 13.1015 1.83921C14.2972 1.56038 15.679 1.93063 18.4427 2.67114C21.2062 3.41165 22.5881 3.78189 23.4843 4.62126C24.1919 5.28403 24.6871 6.14174 24.9072 7.08594C25.1044 7.9316 24.9769 8.87029 24.6235 10.3249" stroke="white" stroke-width="2" stroke-linecap="round"/>
<path d="M2.5591 19.6963C3.29961 22.46 3.66986 23.8417 4.50923 24.7379C5.172 25.4455 6.02971 25.9408 6.9739 26.1609C8.16972 26.4397 9.55152 26.0694 12.3152 25.329C15.0787 24.5884 16.4606 24.2182 17.3568 23.3788C17.9608 22.813 18.4101 22.1052 18.6656 21.3227M8.98562 7.19415C8.55359 7.30586 8.08022 7.4327 7.55737 7.5728C4.79377 8.31331 3.41197 8.68355 2.51578 9.52292C1.80815 10.1857 1.31295 11.0434 1.0928 11.9876C0.895609 12.8333 1.02307 13.7721 1.37657 15.2269" stroke="white" stroke-width="2" stroke-linecap="round" stroke-linejoin="round"/>
</svg>
