<svg width="25" height="25" viewBox="0 0 25 25" fill="none" xmlns="http://www.w3.org/2000/svg">
<path fill-rule="evenodd" clip-rule="evenodd" d="M16.3408 17.4736H9.12085C8.70685 17.4736 8.37085 17.1376 8.37085 16.7236C8.37085 16.3096 8.70685 15.9736 9.12085 15.9736H16.3408C16.7548 15.9736 17.0908 16.3096 17.0908 16.7236C17.0908 17.1376 16.7548 17.4736 16.3408 17.4736Z" fill="#212121"/>
<path fill-rule="evenodd" clip-rule="evenodd" d="M16.3408 13.2871H9.12085C8.70685 13.2871 8.37085 12.9511 8.37085 12.5371C8.37085 12.1231 8.70685 11.7871 9.12085 11.7871H16.3408C16.7548 11.7871 17.0908 12.1231 17.0908 12.5371C17.0908 12.9511 16.7548 13.2871 16.3408 13.2871Z" fill="#212121"/>
<path fill-rule="evenodd" clip-rule="evenodd" d="M11.8755 9.11035H9.12048C8.70648 9.11035 8.37048 8.77435 8.37048 8.36035C8.37048 7.94635 8.70648 7.61035 9.12048 7.61035H11.8755C12.2895 7.61035 12.6255 7.94635 12.6255 8.36035C12.6255 8.77435 12.2895 9.11035 11.8755 9.11035Z" fill="#212121"/>
<mask id="mask0_42_958" style="mask-type:luminance" maskUnits="userSpaceOnUse" x="3" y="2" width="19" height="21">
<path fill-rule="evenodd" clip-rule="evenodd" d="M3.625 2.5H21.7897V22.4098H3.625V2.5Z" fill="white"/>
</mask>
<g mask="url(#mask0_42_958)">
<path fill-rule="evenodd" clip-rule="evenodd" d="M16.5338 4L8.84476 4.004C6.51676 4.018 5.12476 5.458 5.12476 7.857V17.053C5.12476 19.468 6.52976 20.91 8.88076 20.91L16.5698 20.907C18.8978 20.893 20.2898 19.451 20.2898 17.053V7.857C20.2898 5.442 18.8858 4 16.5338 4ZM8.88176 22.41C5.73776 22.41 3.62476 20.257 3.62476 17.053V7.857C3.62476 4.624 5.67176 2.523 8.83976 2.504L16.5328 2.5H16.5338C19.6778 2.5 21.7898 4.653 21.7898 7.857V17.053C21.7898 20.285 19.7428 22.387 16.5748 22.407L8.88176 22.41Z" fill="#212121"/>
</g>
</svg>
