<svg width="25" height="25" viewBox="0 0 25 25" fill="none" xmlns="http://www.w3.org/2000/svg">
<path fill-rule="evenodd" clip-rule="evenodd" d="M17.5479 10.6998C17.1339 10.6998 16.7979 10.3638 16.7979 9.94977V7.80277C16.7979 5.70677 15.0929 4.00177 12.9969 4.00177H12.9809C11.9679 4.00177 11.0189 4.39177 10.3019 5.10277C9.57988 5.81677 9.18088 6.76977 9.17688 7.78577V9.94977C9.17688 10.3638 8.84088 10.6998 8.42688 10.6998C8.01288 10.6998 7.67688 10.3638 7.67688 9.94977V7.80277C7.68288 6.36277 8.23988 5.03377 9.24488 4.03777C10.2509 3.04077 11.5789 2.46377 12.9999 2.50177C15.9199 2.50177 18.2979 4.87977 18.2979 7.80277V9.94977C18.2979 10.3638 17.9619 10.6998 17.5479 10.6998Z" fill="#212121"/>
<path fill-rule="evenodd" clip-rule="evenodd" d="M9.167 10.6284C7.489 10.6284 6.125 11.9924 6.125 13.6704V17.9594C6.125 19.6374 7.489 21.0014 9.167 21.0014H16.808C18.485 21.0014 19.85 19.6374 19.85 17.9594V13.6704C19.85 11.9924 18.485 10.6284 16.808 10.6284H9.167ZM16.808 22.5014H9.167C6.662 22.5014 4.625 20.4644 4.625 17.9594V13.6704C4.625 11.1654 6.662 9.12842 9.167 9.12842H16.808C19.313 9.12842 21.35 11.1654 21.35 13.6704V17.9594C21.35 20.4644 19.313 22.5014 16.808 22.5014Z" fill="#212121"/>
<path fill-rule="evenodd" clip-rule="evenodd" d="M12.9873 17.6756C12.5733 17.6756 12.2373 17.3396 12.2373 16.9256V14.7046C12.2373 14.2906 12.5733 13.9546 12.9873 13.9546C13.4013 13.9546 13.7373 14.2906 13.7373 14.7046V16.9256C13.7373 17.3396 13.4013 17.6756 12.9873 17.6756Z" fill="#212121"/>
</svg>
