<svg width="26" height="26" viewBox="0 0 26 26" fill="none" xmlns="http://www.w3.org/2000/svg">
<path d="M1 13C1 7.34314 1 4.51472 2.75736 2.75736C4.51472 1 7.34314 1 13 1C13.4098 1 13.6146 1 13.823 1.01818C14.7941 1.10297 15.7449 1.4968 16.4916 2.12357C16.6517 2.25802 16.8002 2.40647 17.097 2.70333L23.2967 8.90294C23.5936 9.1998 23.7419 9.34824 23.8764 9.50841C24.5032 10.2551 24.897 11.2059 24.9818 12.177C25 12.3854 25 12.5902 25 13C25 18.6568 25 21.4853 23.2426 23.2426C21.4853 25 18.6568 25 13 25C7.34314 25 4.51472 25 2.75736 23.2426C1.58888 22.0742 1.19733 20.4321 1.06612 17.8" stroke="white" stroke-width="2" stroke-linecap="round"/>
<path d="M16 14.2H10C9.44241 14.2 9.16362 14.2 8.93178 14.2461C7.97973 14.4355 7.23549 15.1797 7.04612 16.1318C7 16.3636 7 16.6424 7 17.2C7 17.7577 7 18.0364 7.04612 18.2683C7.23549 19.2203 7.97973 19.9646 8.93178 20.1539C9.16362 20.2 9.44241 20.2 10 20.2H16C16.5576 20.2 16.8364 20.2 17.0682 20.1539C18.0203 19.9646 18.7646 19.2203 18.9539 18.2683C19 18.0364 19 17.7577 19 17.2C19 16.6424 19 16.3636 18.9539 16.1318C18.7646 15.1797 18.0203 14.4355 17.0682 14.2461C16.8364 14.2 16.5576 14.2 16 14.2Z" stroke="white" stroke-width="2"/>
</svg>
