<svg width="26" height="26" viewBox="0 0 26 26" fill="none" xmlns="http://www.w3.org/2000/svg">
<path d="M13 13C14.9882 13 16.6 11.3882 16.6 9.39999C16.6 7.41176 14.9882 5.79999 13 5.79999C11.0118 5.79999 9.39999 7.41176 9.39999 9.39999C9.39999 11.3882 11.0118 13 13 13Z" stroke="white" stroke-width="2"/>
<path d="M20.1629 22.6C19.972 19.1302 18.9096 16.6 12.9999 16.6C7.09025 16.6 6.02789 19.1302 5.83691 22.6" stroke="white" stroke-width="2" stroke-linecap="round"/>
<path d="M7 2.60538C8.76504 1.58436 10.8143 1 13 1C19.6274 1 25 6.37258 25 13C25 19.6274 19.6274 25 13 25C6.37258 25 1 19.6274 1 13C1 10.8143 1.58436 8.76504 2.60538 7" stroke="white" stroke-width="2" stroke-linecap="round"/>
</svg>
