<svg width="25" height="25" viewBox="0 0 25 25" fill="none" xmlns="http://www.w3.org/2000/svg">
<path fill-rule="evenodd" clip-rule="evenodd" d="M12.5139 13.1185H12.5459C15.4739 13.1185 17.8549 10.7375 17.8549 7.80951C17.8549 4.88151 15.4739 2.49951 12.5459 2.49951C9.61689 2.49951 7.23489 4.88151 7.23489 7.80651C7.22489 10.7265 9.5919 13.1095 12.5139 13.1185ZM8.66289 7.80951C8.66289 5.66851 10.4049 3.92751 12.5459 3.92751C14.6859 3.92751 16.4269 5.66851 16.4269 7.80951C16.4269 9.94951 14.6859 11.6915 12.5459 11.6915H12.5169C10.3849 11.6835 8.65589 9.94351 8.66289 7.80951Z" fill="#212121"/>
<path fill-rule="evenodd" clip-rule="evenodd" d="M4.62488 18.6728C4.62488 22.3699 10.5869 22.3699 12.5459 22.3699C15.9449 22.3699 20.4649 21.9888 20.4649 18.6929C20.4649 14.9958 14.5049 14.9958 12.5459 14.9958C9.14588 14.9958 4.62488 15.3769 4.62488 18.6728ZM6.12488 18.6728C6.12488 17.2278 8.28488 16.4958 12.5459 16.4958C16.8059 16.4958 18.9649 17.2348 18.9649 18.6929C18.9649 20.1378 16.8059 20.8699 12.5459 20.8699C8.28488 20.8699 6.12488 20.1308 6.12488 18.6728Z" fill="#212121"/>
</svg>
