<svg width="28" height="29" viewBox="0 0 28 29" fill="none" xmlns="http://www.w3.org/2000/svg">
<path fill-rule="evenodd" clip-rule="evenodd" d="M25.0433 3.69824C24.9885 3.59557 24.9057 3.51157 24.803 3.45674C22.3693 2.16174 7.8105 6.6744 4.0445 8.84674C3.06333 9.41257 2.62583 10.0776 2.746 10.8196C3.0925 12.9686 8.88267 14.5972 12.0245 15.3264L17.9243 9.42774C18.2662 9.0859 18.8203 9.0859 19.1622 9.42774C19.504 9.76957 19.504 10.3237 19.1622 10.6656L13.2052 16.6202C13.953 19.7947 15.5642 25.4122 17.6793 25.7529C17.7587 25.7657 17.838 25.7727 17.9162 25.7727C18.5625 25.7727 19.1458 25.3294 19.651 24.4544C21.8233 20.6919 26.3395 6.1354 25.0433 3.69824Z" fill="white"/>
</svg>