<svg width="25" height="25" viewBox="0 0 25 25" fill="none" xmlns="http://www.w3.org/2000/svg">
<mask id="mask0_42_231" style="mask-type:luminance" maskUnits="userSpaceOnUse" x="4" y="2" width="18" height="21">
<path fill-rule="evenodd" clip-rule="evenodd" d="M4.62524 2.50049H21.5921V22.8561H4.62524V2.50049Z" fill="white"/>
</mask>
<g mask="url(#mask0_42_231)">
<path fill-rule="evenodd" clip-rule="evenodd" d="M13.1087 4C12.2607 4 6.91066 5.884 6.29366 6.399C6.11166 6.582 6.10466 6.9 6.14366 9.029C6.16166 10.055 6.18666 11.449 6.18666 13.379C6.18666 18.58 11.9087 20.889 13.1077 21.314C14.3057 20.887 20.0307 18.565 20.0307 13.379C20.0307 11.447 20.0557 10.052 20.0747 9.026C20.1127 6.899 20.1057 6.581 19.9127 6.389C19.3077 5.884 13.9567 4 13.1087 4ZM13.1087 22.856C13.0357 22.856 12.9627 22.846 12.8917 22.824C12.5567 22.723 4.68666 20.261 4.68666 13.379C4.68666 11.462 4.66166 10.075 4.64366 9.057C4.59766 6.514 4.58766 5.984 5.24466 5.328C6.02966 4.541 11.9747 2.5 13.1087 2.5C14.2417 2.5 20.1867 4.541 20.9737 5.328C21.6297 5.984 21.6197 6.514 21.5737 9.054C21.5557 10.072 21.5307 11.459 21.5307 13.379C21.5307 20.261 13.6607 22.723 13.3257 22.824C13.2547 22.846 13.1817 22.856 13.1087 22.856Z" fill="#212121"/>
</g>
<path fill-rule="evenodd" clip-rule="evenodd" d="M12.4021 15.0194C12.2031 15.0194 12.0121 14.9404 11.8711 14.7994L9.97913 12.9054C9.68713 12.6124 9.68713 12.1364 9.98013 11.8444C10.2721 11.5514 10.7481 11.5514 11.0411 11.8444L12.4021 13.2074L15.7701 9.83938C16.0631 9.54638 16.5371 9.54638 16.8301 9.83938C17.1231 10.1324 17.1231 10.6074 16.8301 10.9004L12.9321 14.7994C12.7921 14.9404 12.6011 15.0194 12.4021 15.0194Z" fill="#212121"/>
</svg>
