<svg width="25" height="25" viewBox="0 0 25 25" fill="none" xmlns="http://www.w3.org/2000/svg">
<path fill-rule="evenodd" clip-rule="evenodd" d="M12.6246 10.1411C11.2946 10.1411 10.2136 11.2231 10.2136 12.5531C10.2136 13.8821 11.2946 14.9631 12.6246 14.9631C13.9546 14.9631 15.0366 13.8821 15.0366 12.5531C15.0366 11.2231 13.9546 10.1411 12.6246 10.1411ZM12.6246 16.4631C10.4676 16.4631 8.71362 14.7091 8.71362 12.5531C8.71362 10.3961 10.4676 8.64111 12.6246 8.64111C14.7816 8.64111 16.5366 10.3961 16.5366 12.5531C16.5366 14.7091 14.7816 16.4631 12.6246 16.4631Z" fill="#212121"/>
<mask id="mask0_42_312" style="mask-type:luminance" maskUnits="userSpaceOnUse" x="2" y="4" width="21" height="17">
<path fill-rule="evenodd" clip-rule="evenodd" d="M2.62512 4.5H22.625V20.605H2.62512V4.5Z" fill="white"/>
</mask>
<g mask="url(#mask0_42_312)">
<path fill-rule="evenodd" clip-rule="evenodd" d="M4.19487 12.5523C6.05487 16.6613 9.18787 19.1043 12.6249 19.1053C16.0619 19.1043 19.1949 16.6613 21.0549 12.5523C19.1949 8.44426 16.0619 6.00126 12.6249 6.00026C9.18887 6.00126 6.05487 8.44426 4.19487 12.5523ZM12.6269 20.6053H12.6229H12.6219C8.48587 20.6023 4.77187 17.7033 2.68587 12.8483C2.60487 12.6593 2.60487 12.4453 2.68587 12.2563C4.77187 7.40226 8.48687 4.50326 12.6219 4.50026C12.6239 4.49926 12.6239 4.49926 12.6249 4.50026C12.6269 4.49926 12.6269 4.49926 12.6279 4.50026C16.7639 4.50326 20.4779 7.40226 22.5639 12.2563C22.6459 12.4453 22.6459 12.6593 22.5639 12.8483C20.4789 17.7033 16.7639 20.6023 12.6279 20.6053H12.6269Z" fill="#212121"/>
</g>
</svg>
