<svg width="25" height="24" viewBox="0 0 25 24" fill="none" xmlns="http://www.w3.org/2000/svg">
<path fill-rule="evenodd" clip-rule="evenodd" d="M12.125 3.5C7.438 3.5 3.625 7.313 3.625 12C3.625 16.687 7.438 20.5 12.125 20.5C16.812 20.5 20.625 16.687 20.625 12C20.625 7.313 16.812 3.5 12.125 3.5ZM12.125 22C6.611 22 2.125 17.514 2.125 12C2.125 6.486 6.611 2 12.125 2C17.639 2 22.125 6.486 22.125 12C22.125 17.514 17.639 22 12.125 22Z" fill="#9E9E9E"/>
<path fill-rule="evenodd" clip-rule="evenodd" d="M15.5562 15.6924C15.4252 15.6924 15.2932 15.6584 15.1722 15.5874L11.4022 13.3384C11.1762 13.2024 11.0362 12.9574 11.0362 12.6934V7.8454C11.0362 7.4314 11.3722 7.0954 11.7862 7.0954C12.2012 7.0954 12.5362 7.4314 12.5362 7.8454V12.2674L15.9412 14.2974C16.2962 14.5104 16.4132 14.9704 16.2012 15.3264C16.0602 15.5614 15.8112 15.6924 15.5562 15.6924Z" fill="#9E9E9E"/>
</svg>
