<svg width="25" height="24" viewBox="0 0 25 24" fill="none" xmlns="http://www.w3.org/2000/svg">
<path fill-rule="evenodd" clip-rule="evenodd" d="M12.125 22C6.605 22 2.125 17.53 2.125 12C2.125 6.48 6.605 2 12.125 2C17.655 2 22.125 6.48 22.125 12C22.125 17.53 17.655 22 12.125 22ZM15.315 15.71C15.435 15.78 15.565 15.82 15.705 15.82C15.955 15.82 16.205 15.69 16.345 15.45C16.555 15.1 16.445 14.64 16.085 14.42L12.525 12.3V7.68C12.525 7.26 12.185 6.93 11.775 6.93C11.365 6.93 11.025 7.26 11.025 7.68V12.73C11.025 12.99 11.165 13.23 11.395 13.37L15.315 15.71Z" fill="#17CE92"/>
</svg>