<svg width="83" height="80" viewBox="0 0 83 80" fill="none" xmlns="http://www.w3.org/2000/svg">
<circle cx="27.5" cy="78.5" r="1.5" fill="white"/>
<circle cx="54.5" cy="76.5" r="0.5" fill="white"/>
<circle cx="4" cy="59" r="2" fill="white"/>
<circle cx="42.5" cy="40.5" r="31.5" fill="white"/>
<circle cx="73" cy="71" r="1" fill="white"/>
<circle cx="76" cy="49" r="1" fill="white"/>
<circle cx="0.5" cy="33.5" r="0.5" fill="white"/>
<path d="M49.8901 43.092C49.5448 43.4267 49.3861 43.9107 49.4648 44.3854L50.6501 50.9454C50.7501 51.5014 50.5154 52.064 50.0501 52.3854C49.5941 52.7187 48.9874 52.7587 48.4901 52.492L42.5848 49.412C42.3794 49.3027 42.1514 49.244 41.9181 49.2374H41.5568C41.4314 49.256 41.3088 49.296 41.1968 49.3574L35.2901 52.452C34.9981 52.5987 34.6674 52.6507 34.3434 52.5987C33.5541 52.4494 33.0274 51.6974 33.1568 50.904L34.3434 44.344C34.4221 43.8654 34.2634 43.3787 33.9181 43.0387L29.1034 38.372C28.7008 37.9814 28.5608 37.3947 28.7448 36.8654C28.9234 36.3374 29.3794 35.952 29.9301 35.8654L36.5568 34.904C37.0608 34.852 37.5034 34.5454 37.7301 34.092L40.6501 28.1054C40.7194 27.972 40.8088 27.8494 40.9168 27.7454L41.0368 27.652C41.0994 27.5827 41.1714 27.5254 41.2514 27.4787L41.3968 27.4254L41.6234 27.332H42.1848C42.6861 27.384 43.1274 27.684 43.3581 28.132L46.3168 34.092C46.5301 34.528 46.9448 34.8307 47.4234 34.904L54.0501 35.8654C54.6101 35.9454 55.0781 36.332 55.2634 36.8654C55.4381 37.4 55.2874 37.9867 54.8768 38.372L49.8901 43.092Z" fill="url(#paint0_linear_4938_12261)"/>
<circle cx="79.5" cy="12.5" r="3.5" fill="white"/>
<circle cx="47" cy="2" r="1" fill="white"/>
<circle cx="8.5" cy="4.5" r="4.5" fill="white"/>
<defs>
<linearGradient id="paint0_linear_4938_12261" x1="55.3351" y1="52.6671" x2="23.864" y2="43.0614" gradientUnits="userSpaceOnUse">
<stop stop-color="#F89300"/>
<stop offset="1" stop-color="#FFBB58"/>
</linearGradient>
</defs>
</svg>
