<svg width="28" height="28" viewBox="0 0 28 28" fill="none" xmlns="http://www.w3.org/2000/svg">
<path fill-rule="evenodd" clip-rule="evenodd" d="M7.85139 11.9928C8.29773 5.56219 10.7868 0.933332 13.9983 0.933332C15.5626 0.933332 16.9587 2.03544 18.033 3.91105C17.3314 4.05868 16.6373 4.23818 15.9529 4.44896C15.3373 3.50155 14.6554 2.95555 13.9983 2.95555C12.5919 2.95555 11.0754 5.42266 10.3301 9.16477C10.3865 9.12997 10.4421 9.0949 10.4974 9.05997C10.6253 8.97919 10.7521 8.89915 10.8854 8.82504C13.8821 7.13851 16.9961 6.02427 19.6595 5.68858C22.6313 5.31346 24.7685 5.96158 25.685 7.50554C26.4542 8.79976 26.2155 10.5116 25.0467 12.3953C24.59 11.8938 24.0741 11.3963 23.5312 10.9059C24.0616 9.90692 24.2038 9.05355 23.8872 8.51665C23.5354 7.92414 22.5825 7.60867 21.2362 7.60867C20.7967 7.61035 20.3578 7.63939 19.9221 7.69563C17.5254 7.99896 14.6834 9.0222 11.9224 10.5753C11.2528 10.9664 10.5981 11.3813 9.95954 11.8189C9.90349 12.4468 9.86301 13.0869 9.85471 13.7582C9.10424 13.1809 8.42748 12.5894 7.85139 11.9928ZM2.3127 7.50554C3.07873 6.21435 4.70837 5.55814 6.95976 5.59758C6.74075 6.23761 6.55391 6.91708 6.39198 7.63193C5.25227 7.68754 4.425 7.98784 4.1136 8.51665C3.65481 9.28711 4.12087 10.6885 5.3623 12.2719C6.82586 14.1414 9.15718 16.0251 11.9224 17.5802C12.5952 17.9605 13.2851 18.3114 13.99 18.6318C14.59 18.3547 15.1941 18.0585 15.7941 17.7319C15.6404 18.7187 15.438 19.5751 15.2107 20.3102C14.1686 20.8036 13.1264 21.2263 12.1092 21.566L11.4241 21.7723C10.7266 21.9846 10.1184 22.1434 9.56615 22.2576C9.56388 22.2582 9.56167 22.2588 9.55951 22.2594C9.54688 22.2628 9.53585 22.2657 9.52255 22.2657L9.29523 22.3132C8.97138 22.3759 8.65479 22.4265 8.33821 22.4669C7.79015 22.5377 7.26389 22.5731 6.77293 22.5731C4.61599 22.5731 3.05901 21.9098 2.3127 20.65C1.54251 19.3537 1.78125 17.6449 2.94587 15.7643C3.43014 16.2809 3.93751 16.7765 4.46652 17.2496C3.93507 18.2486 3.79287 19.1019 4.1136 19.6388C4.5672 20.4093 6.04633 20.7167 8.07041 20.4609C9.12915 20.3264 10.2803 20.0382 11.4688 19.6388C11.3788 19.5899 11.2881 19.5433 11.1977 19.4968C11.0923 19.4426 10.9873 19.3887 10.8844 19.3315C7.88772 17.6439 5.34154 15.5742 3.7119 13.4974C3.53337 13.2719 3.39117 13.0666 3.26142 12.8735C1.82588 10.7997 1.47816 8.91098 2.3127 7.50554ZM16.3463 10.732C17.2338 10.3892 18.1015 10.1162 18.9205 9.93018C21.1262 11.3801 22.9956 13.0151 24.2848 14.6581C26.1054 16.9766 26.6005 19.106 25.684 20.65C24.9377 21.9098 23.3807 22.5731 21.2238 22.5731C21.1952 22.5731 21.1638 22.5703 21.1324 22.5675C21.101 22.5647 21.0696 22.562 21.0411 22.562C21.2646 21.8964 21.4527 21.2201 21.6047 20.5357C22.7527 20.4801 23.5675 20.1717 23.8872 19.6388C24.3408 18.8684 23.8758 17.467 22.6385 15.8826C21.9908 15.0616 21.1553 14.2355 20.2055 13.4337C20.2073 13.5272 20.2114 13.6193 20.2155 13.7111C20.2209 13.8327 20.2263 13.9539 20.2263 14.0777C20.2263 21.1434 17.8462 26.5629 14.5983 27.1625C14.4032 27.2019 14.2059 27.2222 13.9983 27.2222C12.4341 27.2222 11.038 26.1201 9.9637 24.2444C10.6415 24.1059 11.338 23.9199 12.0438 23.7035C12.6593 24.659 13.3413 25.1999 13.9983 25.1999C14.1156 25.1999 14.2454 25.1807 14.372 25.1403C16.2248 24.5913 18.1503 20.0413 18.1503 14.0777C18.1503 13.284 18.1015 12.5338 18.0372 11.7987C17.4932 11.4357 16.9338 11.0717 16.3463 10.732ZM15.7513 13.0666L14 12.0555L12.2487 13.0666V15.0889L14 16.1L15.7513 15.0889V13.0666Z" fill="#17CE92"/>
</svg>