<svg width="81" height="81" viewBox="0 0 81 81" fill="none" xmlns="http://www.w3.org/2000/svg">
<path fill-rule="evenodd" clip-rule="evenodd" d="M23.0578 34.5986C24.333 16.2253 31.4447 3.00002 40.6205 3.00002C45.0898 3.00002 49.0786 6.1489 52.1481 11.5078C50.1435 11.9296 48.1603 12.4424 46.2049 13.0447C44.4462 10.3378 42.4978 8.77778 40.6205 8.77778C36.602 8.77778 32.2692 15.8267 30.1398 26.5184C30.301 26.419 30.4597 26.3188 30.6178 26.219C30.9833 25.9882 31.3455 25.7595 31.7265 25.5477C40.2884 20.7291 49.1854 17.5455 56.7953 16.5864C65.2861 15.5147 71.3924 17.3664 74.0111 21.7778C76.2086 25.4755 75.5265 30.3664 72.1872 35.7484C70.8823 34.3155 69.4083 32.8942 67.8573 31.4931C69.3728 28.6389 69.7791 26.2006 68.8745 24.6666C67.8692 22.9738 65.1467 22.0724 61.3002 22.0724C60.0445 22.0772 58.7904 22.1602 57.5456 22.3209C50.6979 23.1875 42.5779 26.1111 34.6892 30.5484C32.7761 31.6661 30.9055 32.8513 29.0811 34.1017C28.9209 35.8957 28.8053 37.7244 28.7816 39.6426C26.6374 37.9931 24.7037 36.3031 23.0578 34.5986ZM7.23295 21.7778C9.42162 18.0887 14.0777 16.2138 20.5103 16.3264C19.8845 18.1551 19.3507 20.0964 18.8881 22.1389C15.6317 22.2978 13.2681 23.1558 12.3784 24.6666C11.0676 26.868 12.3992 30.872 15.9461 35.3959C20.1277 40.7375 26.7886 46.1195 34.6892 50.5626C36.6116 51.6491 38.5827 52.6516 40.5968 53.567C42.311 52.7755 44.037 51.929 45.7511 50.9959C45.3122 53.8155 44.7339 56.2623 44.0844 58.3626C41.1069 59.7723 38.1294 60.9799 35.223 61.9506L33.2656 62.5399C31.2727 63.1466 29.5348 63.6001 27.9571 63.9266C27.9506 63.9282 27.9443 63.9299 27.9381 63.9316C27.902 63.9412 27.8705 63.9497 27.8325 63.9497L27.1831 64.0854C26.2578 64.2646 25.3532 64.409 24.4487 64.5246C22.8828 64.7268 21.3792 64.8279 19.9765 64.8279C13.8138 64.8279 9.36527 62.9328 7.23295 59.3332C5.03242 55.6297 5.71453 50.7475 9.04201 45.3741C10.4256 46.8501 11.8753 48.2661 13.3867 49.6179C11.8683 52.4721 11.462 54.9104 12.3784 56.4443C13.6744 58.6457 17.9005 59.5239 23.6836 58.793C26.7085 58.4088 29.9975 57.5855 33.3932 56.4443C33.136 56.3044 32.8769 56.1712 32.6188 56.0386C32.3174 55.8837 32.0175 55.7295 31.7235 55.5661C23.1616 50.7446 15.8868 44.831 11.2307 38.8973C10.7206 38.2531 10.3143 37.6666 9.94358 37.1148C5.84205 31.1897 4.84855 25.7933 7.23295 21.7778ZM47.3289 30.9962C49.8645 30.0168 52.3438 29.2368 54.6838 28.7053C60.9858 32.848 66.327 37.5193 70.0104 42.2137C75.2122 48.8379 76.6268 54.9219 74.0081 59.3332C71.8758 62.9328 67.4273 64.8279 61.2646 64.8279C61.183 64.8279 61.0933 64.8199 61.0036 64.812C60.9139 64.8041 60.8242 64.7961 60.7426 64.7961C61.3813 62.8946 61.9188 60.9623 62.353 59.0068C65.633 58.8479 67.9611 57.9668 68.8745 56.4443C70.1705 54.243 68.8419 50.239 65.3068 45.7121C63.4562 43.3664 61.0689 41.0062 58.3553 38.7153C58.3604 38.9825 58.3721 39.2455 58.3837 39.5079C58.3992 39.8553 58.4146 40.2016 58.4146 40.5555C58.4146 60.743 51.6143 76.2274 42.3347 77.9405C41.7771 78.0532 41.2137 78.111 40.6205 78.111C36.1513 78.111 32.1624 74.9621 29.0929 69.6032C31.0295 69.2074 33.0195 68.6759 35.0362 68.0577C36.7948 70.7877 38.7433 72.3332 40.6205 72.3332C40.9556 72.3332 41.3264 72.2783 41.6882 72.1628C46.9819 70.5941 52.4832 57.5941 52.4832 40.5555C52.4832 38.2877 52.3438 36.1442 52.16 34.044C50.606 33.0068 49.0075 31.9668 47.3289 30.9962ZM45.6289 37.6666L40.6252 34.7777L35.6215 37.6666V43.4444L40.6252 46.3333L45.6289 43.4444V37.6666Z" fill="#E0E0E0"/>
</svg>
