<svg width="181" height="181" viewBox="0 0 181 181" fill="none" xmlns="http://www.w3.org/2000/svg">
<path fill-rule="evenodd" clip-rule="evenodd" d="M51.0984 77.5968C53.9677 36.2569 69.969 6.5 90.6146 6.5C100.67 6.5 109.645 13.585 116.552 25.6425C112.041 26.5915 107.579 27.7455 103.179 29.1005C99.2225 23.01 94.8384 19.5 90.6146 19.5C81.573 19.5 71.824 35.3599 67.033 59.4164C67.3956 59.1927 67.7527 58.9672 68.1084 58.7427C68.9309 58.2233 69.7458 57.7089 70.6029 57.2324C89.8672 46.3904 109.886 39.2274 127.008 37.0694C146.112 34.6579 159.851 38.8244 165.743 48.7499C170.688 57.0699 169.153 68.0744 161.64 80.1838C158.704 76.9598 155.387 73.7618 151.897 70.6094C155.307 64.1874 156.221 58.7014 154.186 55.2499C151.924 51.4409 145.798 49.4129 137.144 49.4129C134.319 49.4237 131.497 49.6104 128.696 49.9719C113.289 51.9219 95.0186 58.4999 77.269 68.4839C72.9646 70.9986 68.7558 73.6654 64.6508 76.4788C64.2905 80.5153 64.0303 84.6298 63.9769 88.9458C59.1525 85.2343 54.8018 81.4318 51.0984 77.5968ZM15.4925 48.7499C20.417 40.4494 30.8933 36.2309 45.3665 36.4844C43.9586 40.5989 42.7575 44.9669 41.7165 49.5624C34.3898 49.9199 29.0716 51.8504 27.0698 55.2499C24.1204 60.2029 27.1165 69.2119 35.0971 79.3908C44.5057 91.4093 59.4928 103.519 77.269 113.516C81.5944 115.96 86.0295 118.216 90.5612 120.276C94.4181 118.495 98.3016 116.59 102.158 114.491C101.171 120.835 99.8697 126.34 98.4084 131.066C91.7089 134.238 85.0095 136.955 78.4701 139.139L74.0661 140.465C69.582 141.83 65.6718 142.85 62.1218 143.585C62.1072 143.588 62.0931 143.592 62.0792 143.596C61.998 143.618 61.9271 143.637 61.8416 143.637L60.3803 143.942C58.2984 144.345 56.2632 144.67 54.228 144.93C50.7047 145.385 47.3216 145.613 44.1654 145.613C30.2994 145.613 20.2902 141.349 15.4925 133.25C10.5413 124.917 12.0761 113.932 19.5629 101.842C22.6761 105.163 25.9378 108.349 29.3385 111.39C25.9221 117.812 25.0079 123.298 27.0698 126.75C29.9858 131.703 39.4945 133.679 52.5064 132.034C59.3126 131.17 66.7127 129.317 74.353 126.75C73.7743 126.435 73.1914 126.135 72.6107 125.837C71.9326 125.488 71.2577 125.141 70.5963 124.774C51.332 113.925 34.9637 100.62 24.4874 87.2688C23.3397 85.8193 22.4255 84.4998 21.5914 83.2583C12.363 69.9269 10.1276 57.7849 15.4925 48.7499ZM105.708 69.4914C111.414 67.2879 116.992 65.5329 122.257 64.3369C136.437 73.6579 148.454 84.1683 156.742 94.7308C168.446 109.635 171.629 123.324 165.737 133.25C160.939 141.349 150.93 145.613 137.064 145.613C136.88 145.613 136.678 145.595 136.477 145.577C136.275 145.559 136.073 145.541 135.889 145.541C137.326 141.263 138.536 136.915 139.513 132.515C146.893 132.158 152.131 130.175 154.186 126.75C157.102 121.797 154.113 112.788 146.159 102.602C141.995 97.3243 136.623 92.0138 130.518 86.8593C130.529 87.4607 130.556 88.0524 130.582 88.6427C130.617 89.4244 130.651 90.2037 130.651 90.9998C130.651 136.422 115.351 171.262 94.4714 175.116C93.217 175.37 91.9491 175.5 90.6146 175.5C80.5587 175.5 71.5838 168.415 64.6775 156.357C69.0348 155.467 73.5123 154.271 78.0497 152.88C82.0067 159.022 86.3907 162.5 90.6146 162.5C91.3686 162.5 92.2027 162.376 93.0168 162.116C104.928 158.587 117.306 129.337 117.306 90.9998C117.306 85.8973 116.992 81.0743 116.578 76.3488C113.082 74.0154 109.485 71.6754 105.708 69.4914ZM101.883 84.4998L90.625 77.9998L79.3667 84.4998V97.4998L90.625 104L101.883 97.4998V84.4998Z" fill="#17CE92"/>
</svg>
