<svg width="25" height="27" viewBox="0 0 25 27" fill="none" xmlns="http://www.w3.org/2000/svg">
<path fill-rule="evenodd" clip-rule="evenodd" d="M5.98476 11.0595C6.43109 4.62886 8.92018 0 12.1317 0C13.696 0 15.092 1.10211 16.1664 2.97772C15.4648 3.12535 14.7706 3.30485 14.0862 3.51563C13.4707 2.56822 12.7888 2.02222 12.1317 2.02222C10.7252 2.02222 9.20874 4.48932 8.46346 8.23144C8.51987 8.19664 8.57542 8.16157 8.63075 8.12664C8.7587 8.04585 8.88546 7.96582 9.01879 7.89171C12.0155 6.20518 15.1294 5.09093 17.7929 4.75525C20.7646 4.38012 22.9019 5.02824 23.8184 6.57221C24.5876 7.86643 24.3488 9.57823 23.18 11.4619C22.7233 10.9604 22.2074 10.463 21.6646 9.97257C22.195 8.97359 22.3372 8.12022 22.0206 7.58332C21.6687 6.99081 20.7159 6.67534 19.3696 6.67534C18.9301 6.67702 18.4912 6.70606 18.0555 6.7623C15.6588 7.06563 12.8168 8.08887 10.0557 9.64193C9.38616 10.0331 8.73145 10.4479 8.09291 10.8856C8.03685 11.5135 7.99637 12.1535 7.98807 12.8249C7.23761 12.2476 6.56084 11.6561 5.98476 11.0595ZM0.446059 6.57221C1.21209 5.28102 2.84173 4.62481 5.09312 4.66425C4.87411 5.30428 4.68727 5.98374 4.52535 6.6986C3.38564 6.75421 2.55836 7.05451 2.24697 7.58332C1.78818 8.35378 2.25423 9.75518 3.49566 11.3386C4.95922 13.2081 7.29054 15.0918 10.0557 16.6469C10.7286 17.0272 11.4185 17.378 12.1234 17.6985C12.7234 17.4214 13.3275 17.1252 13.9274 16.7986C13.7738 17.7854 13.5714 18.6418 13.3441 19.3769C12.3019 19.8703 11.2598 20.293 10.2426 20.6327L9.5575 20.839C8.85998 21.0513 8.25172 21.21 7.69951 21.3243C7.69724 21.3249 7.69503 21.3255 7.69287 21.326C7.68024 21.3294 7.66921 21.3324 7.65591 21.3324L7.42859 21.3799C7.10474 21.4426 6.78816 21.4931 6.47157 21.5336C5.92351 21.6044 5.39725 21.6398 4.90629 21.6398C2.74935 21.6398 1.19237 20.9765 0.446059 19.7166C-0.324127 18.4204 -0.0853898 16.7116 1.07923 14.8309C1.5635 15.3475 2.07087 15.8431 2.59988 16.3163C2.06843 17.3152 1.92623 18.1686 2.24697 18.7055C2.70057 19.476 4.1797 19.7834 6.20377 19.5275C7.26252 19.3931 8.41364 19.1049 9.60214 18.7055C9.51212 18.6565 9.42143 18.6099 9.33111 18.5635C9.22563 18.5093 9.12064 18.4553 9.01775 18.3981C6.02108 16.7106 3.4749 14.6409 1.84527 12.564C1.66673 12.3386 1.52453 12.1333 1.39478 11.9402C-0.0407566 9.8664 -0.388482 7.97765 0.446059 6.57221ZM14.4796 9.79866C15.3671 9.45589 16.2349 9.18289 17.0538 8.99685C19.2596 10.4468 21.129 12.0817 22.4182 13.7248C24.2388 16.0433 24.7339 18.1727 23.8174 19.7166C23.0711 20.9765 21.5141 21.6398 19.3571 21.6398C19.3286 21.6398 19.2972 21.637 19.2658 21.6342C19.2344 21.6314 19.203 21.6286 19.1744 21.6286C19.398 20.9631 19.5861 20.2868 19.7381 19.6024C20.8861 19.5468 21.7009 19.2384 22.0206 18.7055C22.4742 17.9351 22.0092 16.5337 20.7719 14.9492C20.1242 14.1282 19.2886 13.3021 18.3389 12.5003C18.3407 12.5939 18.3447 12.6859 18.3488 12.7778C18.3542 12.8993 18.3596 13.0206 18.3596 13.1444C18.3596 20.21 15.9795 25.6296 12.7317 26.2292C12.5365 26.2686 12.3393 26.2888 12.1317 26.2888C10.5675 26.2888 9.17137 25.1867 8.09706 23.3111C8.77486 23.1726 9.47135 22.9866 10.1772 22.7702C10.7927 23.7257 11.4747 24.2666 12.1317 24.2666C12.249 24.2666 12.3788 24.2474 12.5054 24.207C14.3582 23.6579 16.2837 19.1079 16.2837 13.1444C16.2837 12.3507 16.2349 11.6005 16.1705 10.8654C15.6266 10.5024 15.0671 10.1384 14.4796 9.79866ZM13.8846 12.1333L12.1333 11.1222L10.382 12.1333V14.1555L12.1333 15.1666L13.8846 14.1555V12.1333Z" fill="white"/>
</svg>
